<svg xmlns="http://www.w3.org/2000/svg" viewBox="0 0 500 500" width="100" height="100" style="fill: var(--m); transform: translate(-9px, -9px) scale(0.7) rotateZ(45deg);"><path id="body" d="M161 10L339.21 10L339.21 390.65L294.66 390.65L294.66 485.82L205.55 485.82L205.55 390.65L161 390.65L161 10Z" style="stroke: var(--m); stroke-width: 10; stroke-linejoin: round;"></path><g id="contacts" style="fill: var(--f1);"><path d="M211.37 403.27L226.6 403.27L226.6 481.19L211.37 481.19L211.37 403.27Z"></path><path d="M232.31 403.27L247.54 403.27L247.54 468.82L232.31 468.82L232.31 403.27Z"></path><path d="M252.68 403.27L267.9 403.27L267.9 468.82L252.68 468.82L252.68 403.27Z"></path><path d="M273.61 403.27L288.84 403.27L288.84 481.19L273.61 481.19L273.61 403.27Z"></path></g><path id="hole" d="M249.55 60.08C240.15 60.08 232.55 52.34 232.55 42.77C232.55 33.2 240.15 25.46 249.55 25.46C258.95 25.46 266.55 33.2 266.55 42.77C266.55 52.34 258.95 60.08 249.55 60.08Z" style="fill: var(--button-color);"></path><path id="center_circle" d="M250.11 247.91C223.79 247.91 202.52 226.64 202.52 200.33C202.52 174.01 223.79 152.75 250.11 152.75C276.42 152.75 297.69 174.01 297.69 200.33C297.69 226.64 276.42 247.91 250.11 247.91Z" style="fill: var(--f1);"></path><path id="lock_top" d="M250.11 204.23C243.79 204.23 238.69 199.13 238.69 192.81C238.69 186.5 243.79 181.39 250.11 181.39C256.42 181.39 261.53 186.5 261.53 192.81C261.53 199.13 256.42 204.23 250.11 204.23Z" style="fill: var(--f1); stroke: var(--m); stroke-width: 7;"></path><path id="lock_body" d="M231.07 192.71L268.28 192.71L268.28 225.07L231.07 225.07L231.07 192.71Z"></path></svg>